HIERARCHY
ROOT joint_0
{
	OFFSET 0.000000 0.000000 0.000000
	CHANNELS 6 Xposition Yposition Zposition Zrotation Yrotation Xrotation 
	JOINT joint_1
	{
		OFFSET 6.004005 -1.946999 100.587036
		CHANNELS 3 Zrotation Yrotation Xrotation
		JOINT joint_2
		{
			OFFSET -4.601006 -0.824997 91.925903
			CHANNELS 3 Zrotation Yrotation Xrotation
			JOINT joint_3
			{
				OFFSET -5.420998 -1.130005 91.774048
				CHANNELS 3 Zrotation Yrotation Xrotation
				JOINT joint_4
				{
					OFFSET 4.308998 -3.777992 123.473999
					CHANNELS 3 Zrotation Yrotation Xrotation
					JOINT joint_5
					{
						OFFSET 25.565002 -6.305008 79.437988
						CHANNELS 3 Zrotation Yrotation Xrotation
						End Site
						{
							OFFSET 0.000000 0.000000 0.000000
						}
					}
				}
				JOINT joint_6
				{
					OFFSET -1.750000 -28.655998 68.557983
					CHANNELS 3 Zrotation Yrotation Xrotation
					JOINT joint_7
					{
						OFFSET -17.692001 -116.544006 -17.244019
						CHANNELS 3 Zrotation Yrotation Xrotation
						JOINT joint_8
						{
							OFFSET 27.063004 -23.640991 -266.895020
							CHANNELS 3 Zrotation Yrotation Xrotation
							JOINT joint_9
							{
								OFFSET 40.722000 -15.761017 -232.488953
								CHANNELS 3 Zrotation Yrotation Xrotation
								End Site
								{
									OFFSET 0.000000 0.000000 0.000000
								}
							}
						}
					}
				}
				JOINT joint_10
				{
					OFFSET 6.593002 24.457001 69.892944
					CHANNELS 3 Zrotation Yrotation Xrotation
					JOINT joint_11
					{
						OFFSET 24.311996 114.920002 -19.872925
						CHANNELS 3 Zrotation Yrotation Xrotation
						JOINT joint_12
						{
							OFFSET 21.081001 15.319000 -268.037964
							CHANNELS 3 Zrotation Yrotation Xrotation
							JOINT joint_13
							{
								OFFSET 27.794006 -8.947001 -234.744080
								CHANNELS 3 Zrotation Yrotation Xrotation
								End Site
								{
									OFFSET 0.000000 0.000000 0.000000
								}
							}
						}
					}
				}
			}
		}
	}
	JOINT joint_14
	{
		OFFSET -6.627998 -80.520004 -98.790039
		CHANNELS 3 Zrotation Yrotation Xrotation
		JOINT joint_15
		{
			OFFSET -43.638000 -13.751999 -502.538971
			CHANNELS 3 Zrotation Yrotation Xrotation
			JOINT joint_16
			{
				OFFSET -39.532999 -9.912994 -398.071007
				CHANNELS 3 Zrotation Yrotation Xrotation
				JOINT joint_17
				{
					OFFSET 174.940004 -34.660995 -75.688002
					CHANNELS 3 Zrotation Yrotation Xrotation
					End Site
					{
						OFFSET 0.000000 0.000000 0.000000
					}
				}
			}
		}
	}
	JOINT joint_18
	{
		OFFSET 12.591003 79.842003 -98.765015
		CHANNELS 3 Zrotation Yrotation Xrotation
		JOINT joint_19
		{
			OFFSET -39.080002 -1.297001 -503.101013
			CHANNELS 3 Zrotation Yrotation Xrotation
			JOINT joint_20
			{
				OFFSET -51.570000 -0.514000 -396.815987
				CHANNELS 3 Zrotation Yrotation Xrotation
				JOINT joint_21
				{
					OFFSET 178.987999 -11.521999 -73.244003
					CHANNELS 3 Zrotation Yrotation Xrotation
					End Site
					{
						OFFSET 0.000000 0.000000 0.000000
					}
				}
			}
		}
	}
}
MOTION
Frames: 16
Frame Time: 0.016667
-1482.946899 853.798584 1096.328979 -1.485331 -0.034935 -0.109056 0.371196 0.298585 -0.552405 0.402963 -0.062945 0.135381 0.390734 0.057750 -0.096709 -0.059702 -1.783337 -0.257769 0.000000 0.000000 0.000000 3.232195 0.632625 1.613994 0.022073 1.048419 2.032807 -0.873437 5.862142 -2.523946 0.000000 0.000000 0.000000 0.869319 -0.363158 0.610294 -0.187913 -0.078630 -1.596039 0.504281 2.711937 5.189233 0.000000 0.000000 0.000000 -0.996280 -0.886082 -0.858218 -1.181090 -0.310057 0.935603 -1.155065 2.435672 -0.016807 0.000000 0.000000 0.000000 -0.592260 -3.252797 5.148385 -0.196648 1.449235 -0.493429 -0.265248 1.594231 -0.005701 0.000000 0.000000 0.000000 
-1483.068848 853.806213 1096.327026 -1.480027 -0.046671 -0.113077 0.369473 0.302492 -0.547954 0.400927 -0.065135 0.132618 0.389095 0.060307 -0.094237 -0.057492 -1.779390 -0.263681 0.000000 0.000000 0.000000 3.242917 0.638384 1.619094 0.020593 1.057075 2.030877 -0.874789 5.863667 -2.530103 0.000000 0.000000 0.000000 0.886264 -0.356836 0.598326 -0.188665 -0.076029 -1.604877 0.504181 2.712478 5.190095 0.000000 0.000000 0.000000 -0.998121 -0.883240 -0.856519 -1.183327 -0.303353 0.940889 -1.156728 2.439539 -0.016759 0.000000 0.000000 0.000000 -0.594339 -3.251252 5.152577 -0.198383 1.454691 -0.493058 -0.266924 1.600563 -0.005977 0.000000 0.000000 0.000000 
-1483.190796 853.809937 1096.326050 -1.473547 -0.058284 -0.117148 0.369357 0.306698 -0.544581 0.400584 -0.066634 0.130507 0.389052 0.062084 -0.092314 -0.055727 -1.776461 -0.268479 0.000000 0.000000 0.000000 3.248633 0.645030 1.623011 0.019279 1.065417 2.030618 -0.876043 5.864065 -2.536057 0.000000 0.000000 0.000000 0.897914 -0.351074 0.588857 -0.189335 -0.072389 -1.614379 0.504067 2.711968 5.190551 0.000000 0.000000 0.000000 -1.000379 -0.881328 -0.854336 -1.185996 -0.294637 0.945794 -1.158754 2.442486 -0.017051 0.000000 0.000000 0.000000 -0.596748 -3.249877 5.157152 -0.200389 1.460005 -0.492965 -0.268894 1.607055 -0.006362 0.000000 0.000000 0.000000 
-1483.311890 853.803589 1096.329956 -1.465675 -0.068845 -0.121036 0.372808 0.309262 -0.546215 0.404151 -0.067914 0.131230 0.392579 0.063875 -0.093024 -0.055953 -1.774653 -0.267392 0.000000 0.000000 0.000000 3.243027 0.653066 1.627023 0.018483 1.072800 2.034398 -0.877305 5.865676 -2.541422 0.000000 0.000000 0.000000 0.895403 -0.345815 0.584150 -0.189534 -0.065911 -1.622959 0.504035 2.708959 5.190749 0.000000 0.000000 0.000000 -1.003050 -0.881742 -0.850971 -1.188983 -0.282915 0.948870 -1.161160 2.444718 -0.017647 0.000000 0.000000 0.000000 -0.599705 -3.250825 5.162432 -0.202874 1.467544 -0.493592 -0.271410 1.612920 -0.007009 0.000000 0.000000 0.000000 
-1483.433105 853.790222 1096.336060 -1.456187 -0.079174 -0.125100 0.379181 0.311849 -0.551257 0.410934 -0.067397 0.134691 0.398979 0.062642 -0.095375 -0.056693 -1.772753 -0.264709 0.000000 0.000000 0.000000 3.227659 0.663009 1.629547 0.018077 1.079808 2.041827 -0.878567 5.867412 -2.546641 0.000000 0.000000 0.000000 0.882220 -0.340762 0.583308 -0.189516 -0.056830 -1.632055 0.503987 2.704515 5.190335 0.000000 0.000000 0.000000 -1.006422 -0.883488 -0.846689 -1.192668 -0.268391 0.951359 -1.164161 2.445416 -0.018803 0.000000 0.000000 0.000000 -0.603173 -3.252636 5.168503 -0.205792 1.475795 -0.494516 -0.274376 1.618476 -0.007858 0.000000 0.000000 0.000000 
-1483.549316 853.772827 1096.342041 -1.445378 -0.088907 -0.128519 0.384785 0.312586 -0.556405 0.416859 -0.067775 0.136691 0.404678 0.062376 -0.097129 -0.057655 -1.769823 -0.261079 0.000000 0.000000 0.000000 3.214248 0.672962 1.632114 0.017636 1.087209 2.048710 -0.879631 5.868752 -2.550839 0.000000 0.000000 0.000000 0.869841 -0.334899 0.582030 -0.189392 -0.047792 -1.638128 0.503941 2.701636 5.190435 0.000000 0.000000 0.000000 -1.010335 -0.884436 -0.842470 -1.196742 -0.256165 0.953125 -1.167704 2.447250 -0.019969 0.000000 0.000000 0.000000 -0.607088 -3.254971 5.174674 -0.209050 1.484283 -0.496734 -0.277822 1.623388 -0.008943 0.000000 0.000000 0.000000 
-1483.655640 853.750305 1096.343994 -1.433086 -0.097604 -0.130883 0.387654 0.309363 -0.562350 0.420030 -0.068882 0.138399 0.407708 0.062673 -0.098139 -0.057763 -1.765034 -0.259622 0.000000 0.000000 0.000000 3.207914 0.682430 1.635556 0.016880 1.095751 2.052925 -0.880579 5.870149 -2.554356 0.000000 0.000000 0.000000 0.864592 -0.327074 0.578875 -0.189284 -0.039466 -1.639276 0.503795 2.702697 5.191018 0.000000 0.000000 0.000000 -1.014788 -0.882929 -0.838711 -1.201095 -0.250044 0.954370 -1.171762 2.450525 -0.021072 0.000000 0.000000 0.000000 -0.611383 -3.257696 5.181266 -0.212440 1.492226 -0.501654 -0.281720 1.626831 -0.010305 0.000000 0.000000 0.000000 
-1483.754028 853.722656 1096.343994 -1.419568 -0.105359 -0.132678 0.389447 0.301679 -0.568834 0.422160 -0.067527 0.140627 0.409492 0.061083 -0.100824 -0.058053 -1.756521 -0.256668 0.000000 0.000000 0.000000 3.204911 0.692261 1.640348 0.015971 1.105590 2.055767 -0.881276 5.871455 -2.556434 0.000000 0.000000 0.000000 0.860928 -0.317378 0.575667 -0.188966 -0.030517 -1.635695 0.503577 2.705872 5.191637 0.000000 0.000000 0.000000 -1.019800 -0.879678 -0.834726 -1.205690 -0.248717 0.954482 -1.176345 2.455609 -0.022044 0.000000 0.000000 0.000000 -0.616281 -3.261003 5.188632 -0.216209 1.500121 -0.508773 -0.286244 1.629148 -0.011993 0.000000 0.000000 0.000000 
-1483.847290 853.699890 1096.340942 -1.406980 -0.114343 -0.133821 0.390072 0.294020 -0.572928 0.422959 -0.067127 0.141800 0.410185 0.061240 -0.101254 -0.057212 -1.750277 -0.257779 0.000000 0.000000 0.000000 3.204829 0.700978 1.643301 0.014914 1.114818 2.056382 -0.881931 5.872576 -2.558502 0.000000 0.000000 0.000000 0.861807 -0.307344 0.570387 -0.188867 -0.022344 -1.632804 0.503339 2.710457 5.192533 0.000000 0.000000 0.000000 -1.024547 -0.874250 -0.832206 -1.210115 -0.248673 0.955524 -1.180682 2.460117 -0.023023 0.000000 0.000000 0.000000 -0.621025 -3.262046 5.194854 -0.219895 1.507244 -0.515659 -0.290648 1.630220 -0.013712 0.000000 0.000000 0.000000 
-1483.939453 853.692200 1096.336060 -1.398060 -0.126588 -0.134289 0.389964 0.290351 -0.570275 0.422651 -0.068061 0.140759 0.410010 0.061554 -0.100510 -0.055223 -1.744315 -0.262514 0.000000 0.000000 0.000000 3.209658 0.708144 1.645943 0.013290 1.124007 2.052014 -0.882687 5.872650 -2.561758 0.000000 0.000000 0.000000 0.867812 -0.296527 0.561691 -0.188941 -0.014553 -1.632161 0.503234 2.715407 5.194565 0.000000 0.000000 0.000000 -1.027893 -0.865695 -0.832474 -1.213469 -0.248101 0.958694 -1.183708 2.462945 -0.023770 0.000000 0.000000 0.000000 -0.624325 -3.257989 5.198866 -0.222306 1.512461 -0.521646 -0.293716 1.630851 -0.014916 0.000000 0.000000 0.000000 
-1484.028442 853.696411 1096.328003 -1.392434 -0.141089 -0.133716 0.389375 0.287669 -0.562968 0.421619 -0.068510 0.138519 0.409217 0.062924 -0.099304 -0.052179 -1.740929 -0.271158 0.000000 0.000000 0.000000 3.218750 0.713480 1.648243 0.011295 1.132677 2.043125 -0.883321 5.872132 -2.564707 0.000000 0.000000 0.000000 0.878497 -0.285586 0.551003 -0.189186 -0.007531 -1.633248 0.503259 2.720846 5.197843 0.000000 0.000000 0.000000 -1.029763 -0.854320 -0.835475 -1.215576 -0.248466 0.963224 -1.185403 2.465053 -0.024084 0.000000 0.000000 0.000000 -0.626578 -3.249752 5.200586 -0.223856 1.515621 -0.526814 -0.295846 1.630384 -0.015810 0.000000 0.000000 0.000000 
-1484.113281 853.701599 1096.319946 -1.387897 -0.156412 -0.133178 0.388370 0.284271 -0.554313 0.420108 -0.068931 0.136257 0.407994 0.063909 -0.097197 -0.048695 -1.736561 -0.280920 0.000000 0.000000 0.000000 3.227797 0.718840 1.649879 0.009283 1.141288 2.034087 -0.884062 5.872022 -2.568255 0.000000 0.000000 0.000000 0.889450 -0.273705 0.540497 -0.189470 0.000834 -1.636306 0.503224 2.725729 5.200213 0.000000 0.000000 0.000000 -1.031353 -0.842704 -0.838519 -1.217433 -0.247088 0.967585 -1.186808 2.466556 -0.024393 0.000000 0.000000 0.000000 -0.628519 -3.241203 5.202033 -0.225164 1.521020 -0.531460 -0.297679 1.629139 -0.016632 0.000000 0.000000 0.000000 
-1484.191406 853.701660 1096.313965 -1.385145 -0.172035 -0.132687 0.387582 0.277796 -0.546195 0.418829 -0.068305 0.134194 0.406920 0.063547 -0.095648 -0.045425 -1.728142 -0.289005 0.000000 0.000000 0.000000 3.237580 0.725194 1.652444 0.007386 1.150874 2.026711 -0.884956 5.873728 -2.571949 0.000000 0.000000 0.000000 0.897019 -0.259671 0.533816 -0.189322 0.013368 -1.641951 0.503086 2.725744 5.199665 0.000000 0.000000 0.000000 -1.032353 -0.832098 -0.840429 -1.218549 -0.242543 0.969949 -1.187612 2.467896 -0.024474 0.000000 0.000000 0.000000 -0.629635 -3.233770 5.203255 -0.225794 1.530736 -0.534954 -0.298720 1.626484 -0.017225 0.000000 0.000000 0.000000 
-1484.263428 853.699646 1096.308960 -1.384224 -0.188834 -0.132031 0.386784 0.269425 -0.538388 0.417612 -0.065984 0.133308 0.405725 0.061672 -0.095018 -0.042437 -1.716874 -0.295504 0.000000 0.000000 0.000000 3.247185 0.731744 1.655952 0.005510 1.160715 2.019705 -0.886075 5.877164 -2.576348 0.000000 0.000000 0.000000 0.902708 -0.244080 0.529924 -0.188950 0.028886 -1.649830 0.502833 2.722828 5.196804 0.000000 0.000000 0.000000 -1.032952 -0.821102 -0.842093 -1.219195 -0.235966 0.971321 -1.188018 2.469350 -0.024360 0.000000 0.000000 0.000000 -0.630009 -3.225918 5.203972 -0.225805 1.543683 -0.537590 -0.299060 1.622637 -0.017609 0.000000 0.000000 0.000000 
-1484.333374 853.699585 1096.306030 -1.384046 -0.204512 -0.131391 0.386193 0.259313 -0.528778 0.416485 -0.063911 0.131938 0.404647 0.060259 -0.094625 -0.040112 -1.705592 -0.299936 0.000000 0.000000 0.000000 3.255085 0.738988 1.659593 0.003724 1.170980 2.012901 -0.886764 5.878309 -2.579478 0.000000 0.000000 0.000000 0.906542 -0.229045 0.526241 -0.188799 0.044645 -1.659924 0.502732 2.721411 5.195571 0.000000 0.000000 0.000000 -1.033220 -0.812384 -0.844058 -1.219720 -0.227179 0.973070 -1.188223 2.470824 -0.024155 0.000000 0.000000 0.000000 -0.630019 -3.219939 5.204168 -0.225607 1.558191 -0.539230 -0.299087 1.619684 -0.017809 0.000000 0.000000 0.000000 
-1484.404297 853.703552 1096.303955 -1.384259 -0.218364 -0.131006 0.385887 0.250281 -0.516138 0.415383 -0.064576 0.128215 0.403933 0.059496 -0.092109 -0.038405 -1.693814 -0.302322 0.000000 0.000000 0.000000 3.259169 0.747920 1.660360 0.002221 1.181640 2.007703 -0.886545 5.873487 -2.580324 0.000000 0.000000 0.000000 0.909175 -0.216012 0.521158 -0.189397 0.059020 -1.673965 0.502985 2.725772 5.199273 0.000000 0.000000 0.000000 -1.033271 -0.807305 -0.846578 -1.220442 -0.215219 0.976406 -1.188355 2.471270 -0.024123 0.000000 0.000000 0.000000 -0.630081 -3.216277 5.203903 -0.225641 1.573061 -0.539493 -0.299172 1.617703 -0.017971 0.000000 0.000000 0.000000 
